<svg width="133" height="28" viewBox="0 0 133 28" fill="none" xmlns="http://www.w3.org/2000/svg">
  <path fill-rule="evenodd" clip-rule="evenodd" d="M0 28.0001H10.0307C10.2209 20.9113 13.9776 16.2693 19.8678 14.7806C8.05237 13.8679 1.66216 22.961 0 28.0001Z" fill="#4EFDEA"/>
  <path fill-rule="evenodd" clip-rule="evenodd" d="M19.9481 24.2595C17.3145 20.5345 19.8752 16.2873 20.6692 15.5737C14.7148 17.6701 13.9085 25.8708 14.3945 27.9642L25.4188 28.0001C22.7135 26.9965 21.0303 25.7273 20.035 24.3827C19.9481 24.2595 19.9481 24.2595 19.9481 24.2595Z" fill="#006BF1"/>
  <path fill-rule="evenodd" clip-rule="evenodd" d="M9.44173 0V8.07151C15.1686 10.1003 31.1811 15.8697 20.9094 24.2594L20.9964 24.3826C24.2081 23.1015 26.2909 21.3729 27.2501 19.587C31.1146 12.3893 19.2706 4.71671 9.44173 0Z" fill="#7782F1"/>
  <path d="M36.75 20.8495V7.67742H42.7799C44.0854 7.67742 45.1712 8.11022 46.0373 8.97581C46.9033 9.82885 47.3363 10.8513 47.3363 12.043C47.3363 12.9588 47.0649 13.7742 46.522 14.4892C45.9791 15.2043 45.2746 15.6873 44.4086 15.9382L47.5108 20.8495H44.9127L41.9462 16.2204H39.0379V20.8495H36.75ZM42.683 14.2634C43.3681 14.2634 43.9433 14.0502 44.4086 13.6237C44.8739 13.1846 45.1066 12.6326 45.1066 11.9677C45.1066 11.328 44.8933 10.7885 44.4668 10.3495C44.0402 9.91039 43.4779 9.69086 42.7799 9.69086H39.0379V14.2634H42.683Z" fill="white"/>
  <path d="M50.0692 12.2124C51.1033 11.2088 52.3442 10.707 53.7919 10.707C55.0845 10.707 56.209 11.1147 57.1655 11.9301C58.135 12.733 58.7296 13.7428 58.9493 14.9597C59.0269 15.2608 59.0656 15.5618 59.0656 15.8629C59.0656 16.1263 59.0333 16.3898 58.9687 16.6532H50.7091C50.8383 17.3934 51.1873 17.983 51.7561 18.422C52.3377 18.8611 53.0163 19.0806 53.7919 19.0806C54.9811 19.0806 55.9311 18.6667 56.642 17.8387L58.6197 18.3468C58.2061 19.1496 57.5404 19.7957 56.6226 20.2849C55.7178 20.7616 54.7742 21 53.7919 21C52.3054 21 51.0516 20.4982 50.0304 19.4946C49.0222 18.491 48.5181 17.2805 48.5181 15.8629C48.5181 14.4328 49.0351 13.216 50.0692 12.2124ZM50.7091 14.9973H56.7971C56.6679 14.3324 56.3253 13.7742 55.7695 13.3226C55.2266 12.8584 54.561 12.6263 53.7725 12.6263C52.984 12.6263 52.3119 12.8584 51.7561 13.3226C51.2002 13.7742 50.8512 14.3324 50.7091 14.9973Z" fill="white"/>
  <path d="M60.8526 7.67742H63.0823V12.2312C63.9225 11.2276 65.0277 10.7195 66.3978 10.707C66.4107 10.707 66.4301 10.707 66.456 10.707C67.8649 10.707 69.0605 11.2088 70.0429 12.2124C71.0253 13.2034 71.5165 14.4203 71.5165 15.8629C71.5165 17.293 71.0317 18.5099 70.0623 19.5134C69.0928 20.5045 67.8713 21 66.3978 21C65.0277 21 63.9225 20.5108 63.0823 19.5323V20.8495H60.8526V7.67742ZM63.916 18.1022C64.5494 18.7294 65.312 19.043 66.2039 19.043C67.0958 19.043 67.852 18.7294 68.4724 18.1022C69.1058 17.4749 69.4225 16.7285 69.4225 15.8629C69.4225 14.9973 69.1058 14.2509 68.4724 13.6237C67.852 12.9839 67.0958 12.664 66.2039 12.664C65.312 12.664 64.5429 12.9839 63.8966 13.6237C63.2633 14.2509 62.9466 14.9973 62.9466 15.8629C62.9466 16.7285 63.2697 17.4749 63.916 18.1022Z" fill="white"/>
  <path d="M75.543 10.8763V20.8495H73.3133V10.8763H75.543ZM73.4296 7.39516C73.714 7.13172 74.0565 7 74.4572 7C74.8579 7 75.194 7.13172 75.4654 7.39516C75.7498 7.64606 75.892 7.96595 75.892 8.35484C75.892 8.74373 75.7562 9.06362 75.4848 9.31452C75.2004 9.57796 74.8579 9.70968 74.4572 9.70968C74.0565 9.70968 73.714 9.58423 73.4296 9.33333C73.1452 9.06989 73.003 8.74373 73.003 8.35484C73.003 7.9785 73.1452 7.6586 73.4296 7.39516Z" fill="white"/>
  <path d="M77.7795 20.8495V7.67742H80.0092V20.8495H77.7795Z" fill="white"/>
  <path d="M88.9625 10.8763V20.8495H86.7328V10.8763H88.9625ZM86.8491 7.39516C87.1335 7.13172 87.476 7 87.8767 7C88.2774 7 88.6135 7.13172 88.8849 7.39516C89.1693 7.64606 89.3115 7.96595 89.3115 8.35484C89.3115 8.74373 89.1758 9.06362 88.9043 9.31452C88.62 9.57796 88.2774 9.70968 87.8767 9.70968C87.476 9.70968 87.1335 9.58423 86.8491 9.33333C86.5648 9.06989 86.4226 8.74373 86.4226 8.35484C86.4226 7.9785 86.5648 7.6586 86.8491 7.39516Z" fill="white"/>
  <path d="M92.3624 12.2124C93.3964 11.2088 94.6438 10.707 96.1044 10.707C97.565 10.707 98.8059 11.2151 99.8271 12.2312C100.861 13.2348 101.378 14.4391 101.378 15.8441C101.378 17.2616 100.861 18.4785 99.8271 19.4946C98.793 20.4982 97.5521 21 96.1044 21C94.6438 21 93.3964 20.4982 92.3624 19.4946C91.3283 18.4785 90.8113 17.2616 90.8113 15.8441C90.8113 14.4265 91.3283 13.216 92.3624 12.2124ZM92.9053 15.8441C92.9053 16.7097 93.2155 17.4561 93.8359 18.0833C94.4564 18.7106 95.2125 19.0242 96.1044 19.0242C96.9834 19.0242 97.7331 18.7106 98.3535 18.0833C98.974 17.4561 99.2842 16.7097 99.2842 15.8441C99.2842 14.9785 98.974 14.2384 98.3535 13.6237C97.746 12.9964 96.9963 12.6828 96.1044 12.6828C95.2125 12.6828 94.4564 12.9964 93.8359 13.6237C93.2155 14.2384 92.9053 14.9785 92.9053 15.8441Z" fill="white"/>
  <path d="M102.9 10.8763H105.129V12.1935C105.918 11.2025 106.984 10.707 108.328 10.707C109.505 10.707 110.513 11.0771 111.353 11.8172C112.206 12.5448 112.633 13.517 112.633 14.7339V20.8495H110.403V15.3172C110.403 14.5269 110.157 13.8996 109.666 13.4355C109.188 12.9588 108.593 12.7204 107.883 12.7204C107.068 12.7204 106.403 13.009 105.885 13.586C105.381 14.1505 105.129 14.8593 105.129 15.7124V20.8495H102.9V10.8763Z" fill="white"/>
  <path d="M114.156 19.5699C114.156 19.1685 114.298 18.8297 114.582 18.5538C114.879 18.2652 115.235 18.121 115.649 18.121C116.062 18.121 116.411 18.2652 116.696 18.5538C116.98 18.8297 117.122 19.1685 117.122 19.5699C117.122 19.9713 116.98 20.31 116.696 20.586C116.411 20.862 116.062 21 115.649 21C115.235 21 114.879 20.862 114.582 20.586C114.298 20.31 114.156 19.9713 114.156 19.5699Z" fill="white"/>
  <path d="M120.396 10.8763V20.8495H119.039V10.8763H120.396ZM119 7.50806C119.194 7.33244 119.433 7.24462 119.717 7.24462C120.014 7.24462 120.26 7.33871 120.454 7.52688C120.648 7.70251 120.745 7.92832 120.745 8.2043C120.745 8.48029 120.648 8.71237 120.454 8.90054C120.26 9.07616 120.014 9.16398 119.717 9.16398C119.433 9.16398 119.194 9.07616 119 8.90054C118.806 8.71237 118.709 8.48029 118.709 8.2043C118.709 7.92832 118.806 7.69624 119 7.50806Z" fill="white"/>
  <path d="M124.004 12.2124C125.025 11.2088 126.266 10.707 127.726 10.707C129.2 10.707 130.447 11.2151 131.468 12.2312C132.489 13.2348 133 14.4391 133 15.8441C133 17.2616 132.489 18.4722 131.468 19.4758C130.434 20.4919 129.187 21 127.726 21C126.266 21 125.025 20.4982 124.004 19.4946C122.982 18.491 122.472 17.2742 122.472 15.8441C122.472 14.4265 122.982 13.216 124.004 12.2124ZM124.934 18.629C125.697 19.3943 126.628 19.7769 127.726 19.7769C128.838 19.7769 129.775 19.3943 130.538 18.629C131.313 17.8638 131.701 16.9355 131.701 15.8441C131.701 14.7527 131.313 13.8306 130.538 13.078C129.775 12.3127 128.838 11.9301 127.726 11.9301C126.615 11.9301 125.677 12.3127 124.915 13.078C124.152 13.8306 123.771 14.7527 123.771 15.8441C123.771 16.948 124.159 17.8763 124.934 18.629Z" fill="white"/>
  <path d="M82.2156 20.8478V7.67578H84.4453V20.8478H82.2156Z" fill="white"/>
</svg>
