<svg width="60" height="46" viewBox="0 0 60 46" fill="none" xmlns="http://www.w3.org/2000/svg">
    <path d="M55.1865 17.7887L53.4909 14.3974C52.8914 13.1984 51.6866 12.4536 50.3464 12.4536H40.5452V4.25086C40.5452 2.31246 38.9682 0.735352 37.0297 0.735352H3.51551C1.57699 0.735352 0 2.31234 0 4.25086V34.7183C0 36.6567 1.57699 38.2338 3.51551 38.2338H7.03102C7.03102 40.0331 7.71129 41.6762 8.82703 42.9211H1.17187C0.524648 42.9211 0 43.4459 0 44.093C0 44.7401 0.524648 45.2648 1.17187 45.2648H58.8258C59.473 45.2648 59.9977 44.7401 59.9977 44.093C59.9977 43.4459 59.473 42.9211 58.8258 42.9211H55.8579C56.9737 41.6761 57.6539 40.0331 57.6539 38.2338C57.6539 38.167 57.6507 38.1006 57.6489 38.0339C59.0154 37.5516 59.9975 36.2478 59.9975 34.7183V28.2404C59.9975 26.873 60.2684 28.1496 55.1865 17.7887ZM53.4142 19.4845L56.9297 26.5155H45.2325V19.4845H53.4142ZM2.34363 28.8592H4.68727V31.2028H2.34363V28.8592ZM14.0619 42.9211C11.4773 42.9211 9.37465 40.8183 9.37465 38.2338C9.37465 37.9146 9.40629 37.6004 9.46957 37.2949C9.91031 35.123 11.8417 33.5464 14.0619 33.5464C16.2821 33.5464 18.2136 35.1228 18.6543 37.2949C18.6546 37.2967 18.655 37.2982 18.6553 37.2998C18.7177 37.6003 18.7492 37.9146 18.7492 38.2338C18.7492 40.8184 16.6465 42.9211 14.0619 42.9211ZM14.0619 31.2028C11.0595 31.2028 8.40973 33.1262 7.43285 35.8901H3.51551C2.86934 35.8901 2.34363 35.3644 2.34363 34.7182V33.5463H5.85914C6.50637 33.5463 7.03102 33.0216 7.03102 32.3745V27.6872C7.03102 27.0401 6.50637 26.5153 5.85914 26.5153H2.34363V4.25086C2.34363 3.60469 2.86934 3.07898 3.51551 3.07898H37.0297C37.6759 3.07898 38.2016 3.60469 38.2016 4.25086C38.2016 5.12262 38.2016 33.0799 38.2016 35.8902H20.6904C19.7118 33.1248 17.0631 31.2028 14.0619 31.2028ZM19.2968 42.9211C20.4127 41.6761 21.0928 40.0331 21.0928 38.2338C21.9926 38.2338 43.2088 38.2338 43.5919 38.2338C43.5919 40.0331 44.2721 41.6762 45.3879 42.9211H19.2968ZM50.6229 42.9211C48.0383 42.9211 45.9356 40.8183 45.9356 38.2338C45.9356 37.9146 45.9673 37.6004 46.0305 37.2949C46.4713 35.123 48.4027 33.5464 50.6229 33.5464C52.8431 33.5464 54.7746 35.1228 55.2152 37.2949C55.2156 37.2967 55.2159 37.2982 55.2163 37.2998C55.2786 37.6003 55.3102 37.9146 55.3102 38.2338C55.3103 40.8184 53.2075 42.9211 50.6229 42.9211ZM57.6539 34.7183C57.6539 35.1081 57.4618 35.453 57.1683 35.6662C56.1287 33.0214 53.5424 31.2029 50.6229 31.2029C47.6204 31.2029 44.9707 33.1263 43.9938 35.8902H40.5451V14.7973H50.3463C50.793 14.7973 51.1946 15.0457 51.3946 15.4454L52.2423 17.1409H44.0607C43.4135 17.1409 42.8889 17.6657 42.8889 18.3128V27.6874C42.8889 28.3345 43.4135 28.8593 44.0607 28.8593H57.6539V34.7183Z" fill="#000034"/>
</svg>
